<svg xmlns="http://www.w3.org/2000/svg" xmlns:xlink="http://www.w3.org/1999/xlink" xmlns:inkscape="http://www.inkscape.org/namespaces/inkscape" version="1.1" width="210" height="160" viewBox="100 82 210 160">
<defs>
<clipPath id="clip_1">
<path transform="matrix(1,0,0,-1,0,414.279)" d="M0 414.279H414.279V0H0Z"/>
</clipPath>
</defs>
<g inkscape:groupmode="layer" inkscape:label="&#xB808;&#xC774;&#xC5B4; 1">
<g clip-path="url(#clip_1)">
<path transform="matrix(1,0,0,-1,0,414.279)" d="M828.558 0H414.279V414.279H828.558Z" fill="#d5c1de"/>
<path transform="matrix(1,0,0,-1,233.8324,225.99539)" d="M0 0V13.761C0 13.761-23.97 14.261-26.479 .219H-26.907C-31.028 14.828-53.386 13.761-53.386 13.761V0Z" fill="#ffffff"/>
<path transform="matrix(1,0,0,-1,189.0904,231.38089)" d="M0 0-1.552 .573C-.998 1.737-.658 3.018-.576 4.37H44.693C37.023-.567 27.909-3.446 18.13-3.446 11.875-3.446 5.783-2.289 0 0" fill="#955836"/>
<path transform="matrix(1,0,0,-1,188.3305,230.47119)" d="M0 0 .977-.362C6.684-2.621 12.711-3.766 18.89-3.766 27.52-3.766 35.937-1.478 43.365 2.871H.725C.615 1.881 .373 .919 0 0M18.89-4.945C12.563-4.945 6.393-3.773 .549-1.461L-1.601-.666-1.324-.083C-.789 1.043-.48 2.246-.405 3.495L-.372 4.05H47.458L45.772 2.965C37.734-2.211 28.439-4.945 18.89-4.945" fill="#955836"/>
<path transform="matrix(1,0,0,-1,158.0018,185.60829)" d="M0 0C0 27.139 22.079 49.218 49.218 49.218 62.122 49.218 73.876 44.22 82.663 36.066V-36.066C81.049-37.563 79.334-38.95 77.531-40.223H76.882V-27.658C77.937-27.663 79.022-27.683 80.163-27.731L80.211-26.551C77.303-26.431 74.594-26.456 72.065-26.61 70.957-22.895 68.311-20.407 66.164-18.931 66.622-18.933 66.949-18.794 67.105-18.697 72.034-16.714 71.126 6.17 71.005 8.786 71.005 8.793 71.001 8.799 71 8.805V16.956 17.545 29.981L59.102 24.055 49.473 30.793H48.965L39.337 24.055 27.437 29.981V17.545 16.956 8.169H27.481C27.304 3.712 26.751-16.822 31.409-18.697 31.555-18.789 31.848-18.922 32.267-18.935 30.12-20.412 27.479-22.899 26.372-26.611 23.843-26.458 21.135-26.433 18.226-26.551L18.274-27.731C19.357-27.686 20.392-27.664 21.397-27.658V-30.513C21.005-30.467 20.607-30.438 20.203-30.438 17.356-30.438 14.775-31.594 12.903-33.462L11.924-32.12C4.234-23.199 0-11.792 0 0" fill="#d5c1de"/>
<path transform="matrix(1,0,0,-1,241.9012,171.9749)" d="M0 0H12.659C13.911-4.332 14.595-8.904 14.595-13.633 14.595-17.67 14.096-21.591 13.175-25.348H0Z" fill="#be9b88"/>
<path transform="matrix(1,0,0,-1,242.4905,196.7329)" d="M0 0H12.121C12.98 3.656 13.416 7.397 13.416 11.124 13.416 15.521 12.813 19.907 11.624 24.168H0ZM13.049-1.18H-1.18V25.348H12.514L12.637 24.921C13.936 20.421 14.595 15.779 14.595 11.124 14.595 7.149 14.112 3.161 13.159-.73Z" fill="#be9b88"/>
<path transform="matrix(1,0,0,-1,254.2143,170.79529)" d="M0 0H-12.313V20.129C-6.712 14.578-2.434 7.696 0 0" fill="#be9b88"/>
<path transform="matrix(1,0,0,-1,242.4905,170.2058)" d="M0 0H10.911C8.66 6.716 4.912 12.931 0 18.095ZM12.529-1.18H-1.18V20.954L-.175 19.959C5.559 14.276 9.868 7.232 12.286-.413Z" fill="#be9b88"/>
<path transform="matrix(1,0,0,-1,241.9012,220.54999)" d="M0 0V22.048H12.87C10.568 13.578 6.062 6.008 0 0" fill="#be9b88"/>
<path transform="matrix(1,0,0,-1,242.4905,199.092)" d="M0 0V-20.014C5.386-14.352 9.341-7.474 11.503 0ZM-1.18-22.873V1.179H13.053L12.85 .435C10.561-7.987 6.057-15.701-.175-21.878Z" fill="#be9b88"/>
<path transform="matrix(1,0,0,-1,190.1038,206.24599)" d="M0 0C1.619-2.061 7.336-8.429 17.294-10.098L17.296-10.11C17.306-10.108 17.314-10.106 17.324-10.104 17.334-10.106 17.342-10.108 17.352-10.11L17.354-10.098C27.175-8.452 32.868-2.238 34.577-.089 36.253-1.449 38.004-3.413 38.866-6.051 30.536-6.715 24.376-8.927 20.505-12.673 18.701-14.419 17.746-16.184 17.233-17.59 16.721-16.184 15.766-14.419 13.962-12.673 10.09-8.927 3.934-6.716-4.399-6.051-3.518-3.356-1.708-1.363 0 0" fill="#564c92"/>
<path transform="matrix(1,0,0,-1,207.4278,215.1469)" d="M0 0C-9.313 1.625-14.832 7.69-16.374 9.613-15.329 10.336-14.426 10.801-13.923 11.039-13.448 10.178-12.755 9.281-11.782 8.843-10.822 8.411-9.774 8.482-8.629 9.082-8.579 9.113-7.727 9.655-7.039 10.721-6.243 8.497-4.267 4.694-.007 4.371 4.187 4.694 6.144 8.496 6.935 10.72 7.625 9.653 8.486 9.107 8.564 9.059 9.671 8.482 10.718 8.408 11.675 8.843 12.638 9.276 13.327 10.159 13.802 11.01 14.334 10.756 15.255 10.272 16.308 9.531 14.677 7.521 9.181 1.602 0 0" fill="#9161a6"/>
<path transform="matrix(1,0,0,-1,191.9257,205.6606)" d="M0 0C1.896-2.209 7.131-7.392 15.502-8.887 23.798-7.405 29.035-2.268 30.938-.077 30.391 .279 29.902 .555 29.527 .752 28.925-.172 28.218-.821 27.421-1.182 26.29-1.693 25.07-1.616 23.793-.95 23.74-.919 23.199-.589 22.606 .057 21.577-2.302 19.484-5.399 15.54-5.703 11.459-5.4 9.335-2.3 8.297 .058 7.751-.539 7.261-.858 7.187-.904 5.85-1.608 4.616-1.696 3.479-1.182 2.67-.817 1.956-.158 1.352 .782 .971 .585 .511 .327 0 0M15.502-10.085 15.4-10.067C5.846-8.4 .177-2.125-1.332-.242L-1.728 .251-1.207 .612C-.162 1.335 .747 1.813 1.328 2.086L1.829 2.322 2.095 1.838C2.632 .865 3.26 .211 3.963-.106 4.761-.465 5.624-.392 6.599 .117 6.596 .117 7.353 .601 7.968 1.554L8.615 2.56 9.018 1.434C9.77-.665 11.615-4.23 15.54-4.527 19.308-4.23 21.136-.666 21.882 1.432L22.283 2.56 22.933 1.554C23.569 .569 24.363 .083 24.371 .077 25.292-.401 26.141-.469 26.934-.107 27.631 .207 28.254 .853 28.788 1.811L29.058 2.295 29.558 2.056C30.151 1.773 31.083 1.278 32.15 .528L32.666 .164 32.268-.327C30.752-2.193 25.073-8.415 15.603-10.067Z" fill="#9262a6"/>
<path transform="matrix(1,0,0,-1,186.1774,176.8494)" d="M0 0C0 0-1.161-25.248 3.586-26.928 3.586-26.928 4.899-27.979 7.02-25.037 7.02-25.037 8.434-30.712 12.272-28.715 12.272-28.715 13.787-27.769 14.293-25.877 14.293-25.877 15.706-32.918 21.161-33.339 26.614-32.918 28.027-25.877 28.027-25.877 28.533-27.769 30.048-28.715 30.048-28.715 33.886-30.712 35.301-25.037 35.301-25.037 37.422-27.979 38.735-26.928 38.735-26.928 43.482-25.248 42.32 0 42.32 0" fill="#ffffff"/>
<path transform="matrix(1,0,0,-1,207.3824,210.77519)" d="M0 0C-4.259 .322-6.234 4.125-7.031 6.349-7.719 5.283-8.571 4.741-8.621 4.71-9.766 4.11-10.814 4.039-11.774 4.471-13.149 5.09-13.975 6.627-14.399 7.681-15.17 6.829-15.936 6.347-16.684 6.245-17.288 6.162-17.708 6.355-17.892 6.469-22.821 8.453-21.915 31.338-21.794 33.954-21.78 34.277-21.539 34.537-21.177 34.515-20.853 34.5-20.601 34.224-20.616 33.898-21.056 24.306-20.579 8.671-17.422 7.553-17.36 7.531-17.302 7.499-17.25 7.458-16.955 7.27-16.006 7.371-14.663 9.234-14.529 9.42-14.299 9.511-14.075 9.469-13.849 9.425-13.669 9.255-13.612 9.032-13.606 9.005-12.902 6.271-11.287 5.545-10.667 5.267-9.986 5.328-9.206 5.733-9.211 5.733-7.914 6.584-7.483 8.201-7.413 8.467-7.211 8.668-6.894 8.639-6.621 8.629-6.389 8.433-6.335 8.165-6.321 8.099-4.938 1.556 0 1.175 4.849 1.556 6.23 8.099 6.244 8.165 6.298 8.433 6.531 8.629 6.803 8.639H6.822C7.088 8.639 7.323 8.46 7.392 8.201 7.828 6.57 9.144 5.718 9.158 5.709 9.898 5.327 10.578 5.266 11.199 5.545 12.545 6.151 13.334 8.268 13.524 9.032 13.579 9.255 13.76 9.425 13.985 9.469 14.215 9.511 14.441 9.42 14.575 9.234 15.919 7.368 16.867 7.266 17.181 7.473 17.222 7.498 17.29 7.537 17.334 7.553 20.491 8.671 20.968 24.306 20.527 33.898 20.512 34.224 20.763 34.5 21.088 34.515 21.394 34.542 21.689 34.279 21.704 33.954 21.825 31.338 22.733 8.453 17.804 6.469 17.619 6.353 17.2 6.161 16.595 6.245 15.847 6.347 15.081 6.829 14.311 7.681 13.887 6.628 13.059 5.09 11.683 4.471 10.727 4.038 9.679 4.11 8.572 4.687 8.493 4.734 7.633 5.281 6.942 6.348 6.15 4.124 4.193 .322 0 0" fill="#5f3e66"/>
<path transform="matrix(1,0,0,-1,190.8201,176.8494)" d="M0 0C0 0-2.575-15.634 6.725-13.246 13.614-11.476 18.206-12.074 25.22-13.246 35.547-14.97 31.945 0 31.945 0" fill="#feeeda"/>
<path transform="matrix(1,0,0,-1,195.734,190.9341)" d="M0 0C-1.314 0-2.429 .414-3.33 1.238-7.022 4.618-5.561 13.792-5.496 14.181L-4.332 13.989C-4.346 13.901-5.756 5.057-2.533 2.107-1.515 1.175-.143 .948 1.664 1.41 8.712 3.221 13.379 2.593 20.402 1.42 22.583 1.054 24.24 1.464 25.331 2.635 28.352 5.874 26.478 13.867 26.458 13.947L27.605 14.223C27.69 13.87 29.645 5.535 26.195 1.832 24.818 .352 22.807-.176 20.209 .257 13.337 1.404 8.78 2.018 1.957 .267 1.264 .089 .61 0 0 0" fill="#5f3e66"/>
<path transform="matrix(1,0,0,-1,186.1082,168.65259)" d="M0 0V12.073L11.36 6.416 21.123 13.247H21.26L31.024 6.416 42.384 12.073V0" fill="#f6e765"/>
<path transform="matrix(1,0,0,-1,229.0819,168.65299)" d="M0 0H-1.18V11.12L-12.001 5.732-21.782 12.576-31.562 5.732-42.384 11.12V0H-43.563V13.025L-31.664 7.101-22.036 13.837H-21.528L-21.375 13.731-11.9 7.101 0 13.025Z" fill="#5f3e66"/>
<path transform="matrix(1,0,0,-1,0,414.279)" d="M186.108 237.43H228.492V245.627H186.108Z" fill="#f6ec86"/>
<path transform="matrix(1,0,0,-1,0,414.279)" d="M186.698 238.02H227.902V245.037H186.698ZM229.082 236.84H185.519V246.216H229.082Z" fill="#5f3e66"/>
<path transform="matrix(1,0,0,-1,219.493,171.9753)" d="M0 0C-.464 0-.841-.378-.841-.843-.841-1.307-.464-1.685 0-1.685 .465-1.685 .843-1.307 .843-.843 .843-.378 .465 0 0 0M0-2.865C-1.114-2.865-2.021-1.958-2.021-.843-2.021 .272-1.114 1.18 0 1.18 1.115 1.18 2.023 .272 2.023-.843 2.023-1.958 1.115-2.865 0-2.865" fill="#5f3e66"/>
<path transform="matrix(1,0,0,-1,207.2996,171.9753)" d="M0 0C-.464 0-.842-.378-.842-.843-.842-1.307-.464-1.685 0-1.685 .465-1.685 .843-1.307 .843-.843 .843-.378 .465 0 0 0M0-2.865C-1.115-2.865-2.022-1.958-2.022-.843-2.022 .272-1.115 1.18 0 1.18 1.115 1.18 2.023 .272 2.023-.843 2.023-1.958 1.115-2.865 0-2.865" fill="#5f3e66"/>
<path transform="matrix(1,0,0,-1,195.1051,171.9753)" d="M0 0C-.464 0-.842-.378-.842-.843-.842-1.307-.464-1.685 0-1.685 .465-1.685 .843-1.307 .843-.843 .843-.378 .465 0 0 0M0-2.865C-1.115-2.865-2.022-1.958-2.022-.843-2.022 .272-1.115 1.18 0 1.18 1.115 1.18 2.023 .272 2.023-.843 2.023-1.958 1.115-2.865 0-2.865" fill="#5f3e66"/>
<path transform="matrix(1,0,0,-1,213.1397,185.3337)" d="M0 0C0-.905 .734-1.639 1.64-1.639 2.545-1.639 3.279-.905 3.279 0 3.279 .906 2.545 1.64 1.64 1.64 .734 1.64 0 .906 0 0" fill="#5f3e66"/>
<path transform="matrix(1,0,0,-1,196.8308,185.3337)" d="M0 0C0-.905 .733-1.639 1.639-1.639 2.545-1.639 3.279-.905 3.279 0 3.279 .906 2.545 1.64 1.639 1.64 .733 1.64 0 .906 0 0" fill="#5f3e66"/>
<path transform="matrix(1,0,0,-1,206.7928,194.0454)" d="M0 0C-1.397 0-2.533 1.136-2.533 2.533H-1.354C-1.354 1.787-.746 1.179 0 1.179 .747 1.179 1.355 1.787 1.355 2.533H2.534C2.534 1.136 1.397 0 0 0" fill="#5f3e66"/>
<path transform="matrix(1,0,0,-1,208.5968,186.91139)" d="M0 0H-1.18C-1.18 .343-1.46 .623-1.804 .623-2.147 .623-2.427 .343-2.427 0H-3.607C-3.607 .994-2.798 1.803-1.804 1.803-.81 1.803 0 .994 0 0" fill="#5f3e66"/>
<path transform="matrix(1,0,0,-1,0,414.279)" d="M216.898 231.649H212.97499V232.829H216.898Z" fill="#5f3e66"/>
<path transform="matrix(1,0,0,-1,0,414.279)" d="M200.753 231.649H196.83101V232.829H200.753Z" fill="#5f3e66"/>
<path transform="matrix(1,0,0,-1,205.3912,151.5386)" d="M0 0C0-1.054 .855-1.909 1.909-1.909 2.963-1.909 3.818-1.054 3.818 0 3.818 1.054 2.963 1.909 1.909 1.909 .855 1.909 0 1.054 0 0" fill="#f6ec86"/>
<path transform="matrix(1,0,0,-1,207.2996,150.21939)" d="M0 0C-.727 0-1.319-.592-1.319-1.319-1.319-2.046-.727-2.638 0-2.638 .727-2.638 1.319-2.046 1.319-1.319 1.319-.592 .727 0 0 0M0-3.818C-1.378-3.818-2.499-2.697-2.499-1.319-2.499 .059-1.378 1.18 0 1.18 1.378 1.18 2.499 .059 2.499-1.319 2.499-2.697 1.378-3.818 0-3.818" fill="#5f3e66"/>
<path transform="matrix(1,0,0,-1,229.1061,212.8234)" d="M0 0C-1.67 6.184-8.329 8.878-8.397 8.905L-7.965 10.002C-7.669 9.886-.689 7.074 1.138 .307Z" fill="#5f3e66"/>
<path transform="matrix(1,0,0,-1,185.4829,212.8649)" d="M0 0-1.14 .304C.668 7.103 7.678 9.926 7.975 10.044L8.407 8.946C8.339 8.92 1.652 6.214 0 0" fill="#5f3e66"/>
<path transform="matrix(1,0,0,-1,207.3619,216.3563)" d="M0 0-.194 1.163C11.003 3.017 16.806 11.34 16.863 11.424L17.838 10.759C17.594 10.4 11.711 1.937 0 0" fill="#5f3e66"/>
<path transform="matrix(1,0,0,-1,207.4182,216.3563)" d="M0 0C-11.711 1.937-17.594 10.4-17.838 10.759L-16.863 11.424C-16.806 11.34-11.003 3.017 .193 1.163Z" fill="#5f3e66"/>
<path transform="matrix(1,0,0,-1,204.778,226.6122)" d="M0 0 2.507 2.547C2.61 2.654 13.142 13.113 29.652 11.494L29.537 10.319C19.187 11.349 11.283 7.458 6.981 4.577 12.385 6.757 21.863 9.855 29.686 8.637L29.504 7.472C18.448 9.19 3.344 1.682 3.192 1.607Z" fill="#5f3e66"/>
<path transform="matrix(1,0,0,-1,208.0886,226.504)" d="M0 0-.769 .894C-.521 1.111 5.6 6.183 26.3 5.625L26.268 4.445C6.109 4.999 .059 .052 0 0" fill="#5f3e66"/>
<path transform="matrix(1,0,0,-1,209.6645,226.6122)" d="M0 0-3.193 1.607C-3.319 1.67-15.807 7.92-26.43 7.726L-26.451 8.906C-19.359 8.994-11.648 6.457-6.977 4.573-11.279 7.454-19.18 11.354-29.538 10.319L-29.653 11.494C-13.149 13.122-2.612 2.654-2.508 2.547Z" fill="#5f3e66"/>
<path transform="matrix(1,0,0,-1,206.3527,226.50269)" d="M0 0C-.047 .039-4.838 3.966-20.047 4.44L-20.01 5.619C-4.291 5.13 .57 1.066 .77 .893Z" fill="#5f3e66"/>
<path transform="matrix(1,0,0,-1,207.8894,226.64789)" d="M0 0-1.179 .008C-1.179 .043-1.214 3.549-4.718 6.916-8.136 10.201-15.552 13.978-31.534 13.308L-31.582 14.488C-18.406 15.039-9.065 12.765-3.863 7.73-.009 4.002 .001 .161 0 0" fill="#5f3e66"/>
<path transform="matrix(1,0,0,-1,206.7099,226.64919)" d="M0 0C-.001 .162 .009 4.002 3.861 7.73 9.065 12.765 18.4 15.032 31.583 14.489L31.535 13.31C15.546 13.985 8.134 10.202 4.717 6.917 1.213 3.549 1.179 .044 1.179 .009Z" fill="#5f3e66"/>
<path transform="matrix(1,0,0,-1,0,414.279)" d="M234.962 187.636H233.78202V201.60901H234.962Z" fill="#5f3e66"/>
<path transform="matrix(1,0,0,-1,0,414.279)" d="M180.658 197.232H179.47801V201.607H180.658Z" fill="#5f3e66"/>
<path transform="matrix(1,0,0,-1,0,414.279)" d="M236.568 187.268H187.62299V188.448H236.568Z" fill="#5f3e66"/>
<path transform="matrix(1,0,0,-1,167.7651,237.2069)" d="M0 0C0-2.605-2.112-4.716-4.716-4.716-7.321-4.716-9.432-2.605-9.432 0-9.432 2.605-7.321 4.716-4.716 4.716-2.112 4.716 0 2.605 0 0" fill="#d5c1de"/>
<path transform="matrix(1,0,0,-1,163.0485,233.4928)" d="M0 0C-2.048 0-3.714-1.666-3.714-3.714-3.714-5.762-2.048-7.428 0-7.428 2.048-7.428 3.714-5.762 3.714-3.714 3.714-1.666 2.048 0 0 0M0-9.432C-3.153-9.432-5.718-6.867-5.718-3.714-5.718-.561-3.153 2.004 0 2.004 3.153 2.004 5.718-.561 5.718-3.714 5.718-6.867 3.153-9.432 0-9.432" fill="#5f3e66"/>
<path transform="matrix(1,0,0,-1,187.623,226.3866)" d="M0 0C0-5.158-4.181-9.339-9.339-9.339-14.496-9.339-18.677-5.158-18.677 0-18.677 5.157-14.496 9.339-9.339 9.339-4.181 9.339 0 5.157 0 0" fill="#d5c1de"/>
<path transform="matrix(1,0,0,-1,178.2844,218.04979)" d="M0 0C-4.596 0-8.337-3.74-8.337-8.337-8.337-12.933-4.596-16.673 0-16.673 4.596-16.673 8.337-12.933 8.337-8.337 8.337-3.74 4.596 0 0 0M0-18.678C-5.702-18.678-10.341-14.039-10.341-8.337-10.341-2.634-5.702 2.005 0 2.005 5.702 2.005 10.341-2.634 10.341-8.337 10.341-14.039 5.702-18.678 0-18.678" fill="#5f3e66"/>
<path transform="matrix(1,0,0,-1,207.2996,237.00859)" d="M0 0C-6.53 0-12.894 1.208-18.913 3.592L-21.518 4.553-20.701 6.767-18.069 5.795C-12.303 3.512-6.232 2.359 0 2.359 27.041 2.359 49.041 24.359 49.041 51.4 49.041 78.441 27.041 100.441 0 100.441-27.041 100.441-49.041 78.441-49.041 51.4-49.041 39.65-44.821 28.284-37.16 19.397L-35.439 17.036-37.346 15.649-39.007 17.932C-46.978 27.172-51.4 39.084-51.4 51.4-51.4 79.743-28.343 102.8 0 102.8 28.343 102.8 51.4 79.743 51.4 51.4 51.4 23.058 28.343 0 0 0" fill="#5f3e66"/>
<path transform="matrix(1,0,0,-1,0,414.279)" d="M241.924 191.751H240.745V265.422H241.924Z" fill="#5f3e66"/>
<path transform="matrix(1,0,0,-1,0,414.279)" d="M255.289 242.304H241.334V243.484H255.289Z" fill="#5f3e66"/>
<path transform="matrix(1,0,0,-1,0,414.279)" d="M255.812 215.777H241.334V216.956H255.812Z" fill="#5f3e66"/>
<path transform="matrix(1,0,0,-1,247.2997,197.9128)" d="M0 0V16.837H3.002V0" fill="#5f3e66"/>
<path transform="matrix(1,0,0,-1,243.6939,170.88939)" d="M0 0V13.168H3.002V0" fill="#5f3e66"/>
<path transform="matrix(1,0,0,-1,247.7906,170.88939)" d="M0 0V9.493H2.02V0" fill="#5f3e66"/>
<path transform="matrix(1,0,0,-1,0,414.279)" d="M251.476 216.366H253.564V231.311H251.476Z" fill="#5f3e66"/>
<path transform="matrix(1,0,0,-1,243.5145,197.58649)" d="M0 0 4.797 12.253H3.002L-1.436 0" fill="#5f3e66"/>
<path transform="matrix(1,0,0,-1,169.4868,131.45069)" d="M0 0 5.757-7.566 4.994-8.149-.765-.583ZM2.35-7.308C1.304-7.436-.316-7.165-1.19-6.507-.735-7.561-.772-9.132-1.265-10.342L-2.181-10.152C-1.532-8.605-1.65-6.73-2.77-5.256L-3.235-4.647-4.952-5.953-5.429-5.327-1.23-2.131-.753-2.758-2.446-4.046-1.988-4.648C-.873-6.112 .858-6.632 2.372-6.392Z" fill="#4b275a"/>
<path transform="matrix(1,0,0,-1,182.3472,134.99518)" d="M0 0-4.536 8.353-3.718 8.796 .818 .443ZM-1.751-.416-3.004 1.891-3.903 1.404-4.263 2.069-3.366 2.556-4.054 3.823-4.996 3.311-5.362 3.984-4.419 4.496-5.96 7.334-5.161 7.769-.951 .017ZM-6.725 2.232C-7.309 1.916-7.48 1.288-7.167 .713-6.851 .129-6.236-.061-5.653 .257-5.078 .569-4.912 1.205-5.218 1.772-5.536 2.355-6.15 2.545-6.725 2.232M-5.271-.445C-6.322-1.015-7.432-.664-7.95 .288-8.5 1.303-8.157 2.363-7.105 2.933-6.045 3.509-4.983 3.201-4.437 2.196-3.891 1.19-4.212 .131-5.271-.445M-9.065 4.056-9.445 4.756-7.308 5.918-6.927 5.216ZM-9.334 2.281-9.704 2.964-5.753 5.11-5.382 4.427Z" fill="#4b275a"/>
<path transform="matrix(1,0,0,-1,188.9733,126.422489)" d="M0 0 1.434 .509 1.701-.242 .266-.751 1.876-5.286 .981-5.604-2.199 3.351-1.304 3.669ZM-3.314 1.881C-2.364-.98-3.11-3.609-5.085-5.807L-5.889-5.312C-4.13-3.548-3.493-1.219-4.017 .775L-7.204-.357-7.475 .404Z" fill="#4b275a"/>
<path transform="matrix(1,0,0,-1,201.4869,125.6127)" d="M0 0-.321 2.29-1.375 2.143-1.064-.076-1.977-.205-2.708 5.014-1.797 5.142-1.485 2.923-.431 3.071-.767 5.462 .156 5.592 .922 .13ZM.144-1.25-4.183-1.857-3.927-3.682 .4-3.075ZM-4.772-4.576-5.243-1.231 .989-.357 1.46-3.701ZM-2.85-.017C-3.542 .206-4.587 .948-4.956 1.589-5.082 .796-5.772-.251-6.537-.834L-7.201-.235C-6.248 .487-5.464 1.745-5.655 3.113L-5.809 4.207-4.887 4.337-4.736 3.262C-4.54 1.864-3.319 1.044-2.444 .773Z" fill="#4b275a"/>
<path transform="matrix(1,0,0,-1,211.3291,129.49808)" d="M0 0C-1.356 .226-2.773 1.199-3.199 2.045-3.579 1.252-4.995 .334-6.441 .132L-6.908 .906C-5.19 .992-3.678 2.103-3.66 3.268L-3.655 3.576-2.663 3.559-2.668 3.253C-2.686 2.108-1.12 .927 .483 .769ZM.348 5.781C-1.11 6.071-2.639 7.036-3.084 8.014-3.508 7.05-5.005 6.133-6.564 5.901L-6.97 6.655C-5.383 6.803-3.578 7.818-3.556 9.188L-3.552 9.484-2.549 9.468-2.554 9.172C-2.576 7.802-.589 6.677 .8 6.542ZM-7.438 4.279-7.425 5.066-3.611 5.006-3.591 6.386-2.629 6.371-2.651 4.991 1.162 4.93 1.15 4.143Z" fill="#4b275a"/>
<path transform="matrix(1,0,0,-1,214.8818,123.99988)" d="M0 0 .557 3.287 1.504 3.125 1.079 .616 6.502-.304 6.37-1.081ZM-.962-5.488-.492-2.716 .455-2.876 .116-4.873 5.61-5.805 5.479-6.58ZM-1.477-1.677-1.346-.902 7.121-2.338 6.99-3.114Z" fill="#4b275a"/>
<path transform="matrix(1,0,0,-1,232.2543,131.52219)" d="M0 0-1.157-2.977-2.054-2.628-1.179-.377-6.321 1.622-6.039 2.348ZM-1.521 3.546-1.914 2.534 1.654 1.147 1.369 .412-6.646 3.527-6.36 4.262-2.811 2.882-2.418 3.894-4.907 4.861-3.739 7.867 2.175 5.568 1.889 4.834-3.129 6.784-3.729 5.238 1.356 3.261 1.074 2.537Z" fill="#4b275a"/>
<path transform="matrix(1,0,0,-1,238.4034,138.46369)" d="M0 0 2.687 4.631 .849 5.699 1.259 6.405 3.098 5.338 4.77 8.219 5.601 7.738 .831-.482ZM-.355 2.829C-.812 3.732-1.18 5.316-.935 6.451-1.798 5.616-3.216 5.045-4.503 4.965L-4.665 5.886C-2.977 5.946-1.271 6.87-.394 8.382L.427 9.795 1.284 9.297 .484 7.918C-.409 6.381-.243 4.549 .499 3.161Z" fill="#4b275a"/>
<path transform="matrix(1,0,0,-1,248.2826,140.3599)" d="M0 0 .967 1.193-.307 2.224 .184 2.829 1.457 1.798 3.184 3.93 3.932 3.325 .749-.606ZM-1.001 7.254 1.05 5.591 .568 4.995-1.485 6.657ZM-2.915 6.893 1.112 3.632 .628 3.035-1.003 4.357C-1.556 3.462-1.213 2.194-.567 1.382L-1.411 1.104C-1.901 1.817-2.233 2.969-2.051 3.861-2.796 3.412-4.051 3.374-5.111 3.758L-5.068 4.658C-3.932 4.173-2.569 4.229-1.798 5.002L-3.397 6.297ZM-6.822-.127-5.339 1.704-1.282-1.583-.793-.978-4.858 2.314-4.368 2.919 .446-.979-.992-2.753-5.049 .532-5.584-.128-1.288-3.607-1.777-4.212Z" fill="#4b275a"/>
<path transform="matrix(1,0,0,-1,254.3084,140.36679)" d="M0 0 .576 .522 2.432-1.524 1.856-2.046ZM2.116-6.231 .381-7.806-.265-7.094 4.107-3.126 4.753-3.838 2.707-5.695 3.663-6.748 3.072-7.285ZM-1.938 .079-1.37 .594 2.308-3.459 1.741-3.974ZM-.95-2.714C-1.404-2.214-2.04-2.016-2.418-2.36-2.79-2.697-2.648-3.356-2.201-3.849-1.754-4.341-1.119-4.539-.748-4.201-.369-3.858-.503-3.207-.95-2.714M-2.746-4.344C-3.592-3.412-3.762-2.295-3.059-1.655-2.339-1.002-1.258-1.28-.405-2.219 .441-3.151 .619-4.261-.101-4.914-.798-5.547-1.901-5.276-2.746-4.344M.017-8.15-2.295-10.248-2.941-9.535-1.213-7.968-4.726-4.095-4.144-3.567Z" fill="#4b275a"/>
<path transform="matrix(1,0,0,-1,260.4852,152.56488)" d="M0 0-1.057-.698 1.049-3.889 .401-4.318-4.331 2.849-3.683 3.277-1.587 .104-.53 .802-1.977 2.995 .829 4.849 1.359 4.047-.8 2.621 2.209-1.935 1.561-2.363ZM-6.661-.024-4.323 1.519-3.793 .718-5.483-.399-2.401-5.065-3.049-5.494Z" fill="#4b275a"/>
<path transform="matrix(1,0,0,-1,266.5813,163.76419)" d="M0 0C-.376 1.437-.232 3.167 .438 3.966-.602 3.931-1.95 4.912-2.837 6.216L-2.333 6.907C-1.516 5.538 .029 4.32 1.249 4.876L1.443 4.966 1.86 4.054 1.664 3.964C.436 3.404 .39 1.213 .862-.09ZM-8.174 3.668-6.173 4.581-3.85-.509-3.245-.233-5.581 4.885-4.817 5.233-3.641 2.655-2.813 3.033-4.389 6.486-3.682 6.809-.114-1.008-.821-1.33-2.413 2.159-3.242 1.781-2.083-.759-4.102-1.682-6.426 3.409-7.049 3.124-4.581-2.282-5.307-2.614Z" fill="#4b275a"/>
<path transform="matrix(1,0,0,-1,145.0499,261.3861)" d="M0 0V-2.122L4.481-6.227 3.301-7.548-.992-3.631-5.284-7.548-6.511-6.227-2.029-2.122V0H-6.511V1.793H4.481V0ZM-.047-12.925V-21.558H-1.983V-12.925H-9.625V-11.132H7.453V-12.925Z" fill="#4c285a"/>
<path transform="matrix(1,0,0,-1,0,414.279)" d="M171.989 151.124H173.924V134.898H171.989ZM165.196 136.69V134.897H154.818V144.332H156.753V136.69Z" fill="#4c285a"/>
<path transform="matrix(1,0,0,-1,190.3445,269.9472)" d="M0 0H7.549V6.792H9.483V-9.434H7.549V-1.792H0ZM-7.642-7.029C-5.991-7.029-4.953-5.898-4.953-4.435-4.953-3.066-5.991-1.746-7.642-1.746-9.152-1.746-10.285-3.066-10.285-4.435-10.285-5.898-9.152-7.029-7.642-7.029M-7.642 .095C-5.142 .095-3.066-1.841-3.066-4.435-3.066-6.935-5.142-8.87-7.642-8.87-10.096-8.87-12.171-6.935-12.171-4.435-12.171-1.935-10.096 .095-7.642 .095" fill="#4c285a"/>
<path transform="matrix(1,0,0,-1,209.1134,294.2648)" d="M0 0V10.768H8.303V14.077H.064V17.839H12.26V7.006H3.957V3.762H12.26V0ZM8.239 40.998 14.336 35.482 11.742 32.63 6.292 37.558 .909 32.63-1.751 35.549 4.282 40.998V45.993H8.239ZM8.239 32.176V25.753H17.904V21.991H-5.579V25.753H4.282V32.176Z" fill="#4c285a"/>
<path transform="matrix(1,0,0,-1,234.4148,275.84169)" d="M0 0V10.769H9.731V14.077H0V17.839H13.687V7.006H3.957V3.762H13.687V0H8.952V-4.93H18.488V-8.693H-4.995V-4.93H4.995V0Z" fill="#4c285a"/>
<path transform="matrix(1,0,0,-1,0,414.279)" d="M270.097 157.314H264.323V152.448H270.097ZM261.599 124.944V135.842H265.556V128.707H272.431V124.944ZM274.053 161.076V148.686H269.318V143.756H278.854V139.993H255.371V143.756H265.361V148.686H260.366V161.076Z" fill="#4c285a"/>
</g>
</g>
</svg>
